#!OML:ASF I:\golf\golf\golf 2\Subject 1\2002-09-07\Subject1.ASF
:FULLY-SPECIFIED
:DEGREES
186
root -11.6414 17.9418 6.93725 -118.384 85.0845 -134.116
lowerback 4.36906 1.78539 -1.10588
upperback 4.09551 2.47078 4.64885
thorax 1.52358 1.22053 5.35802
lowerneck -11.7133 -3.01339 1.70681
upperneck 41.7381 -1.42269 -2.67436
head 17.1563 0.0641726 -1.54309
rclavicle 9.54166e-015 4.77083e-015
rhumerus -8.49168 11.2158 -101.091
rradius 30.8911
rwrist -43.4915
rhand -27.0382 -16.2893
rfingers 7.12502
rthumb -0.45694 -46.2685
lclavicle 9.54166e-015 4.77083e-015
lhumerus -12.9352 -45.8766 108.589
lradius 37.0594
lwrist 52.2812
lhand -7.57629 60.5958
lfingers 7.12502
lthumb -161.684 269.753
rfemur -30.4035 -2.28241 16.8293
rtibia 28.7095
rfoot -8.13448 -7.72846
rtoes 2.02232
lfemur -28.5923 1.43025 -7.11926
ltibia 23.9672
lfoot -8.3465 -2.34079
ltoes -17.3995
187
root -11.6367 17.9449 6.93552 -115.839 85.1959 -131.679
lowerback 4.24328 1.82711 -1.15253
upperback 4.10212 2.52258 4.66285
thorax 1.59307 1.24364 5.40225
lowerneck -11.7287 -2.97387 1.58995
upperneck 41.7227 -1.37492 -2.57245
head 17.1574 0.0765737 -1.46805
rclavicle 1.23246e-014 3.18055e-015
rhumerus -9.09463 12.9949 -100.938
rradius 31.9719
rwrist -45.1687
rhand -27.4961 -16.3925
rfingers 7.12502
rthumb -0.899196 -46.3704
lclavicle 1.23246e-014 3.18055e-015
lhumerus -12.8994 -45.835 108.523
lradius 37.0774
lwrist 52.3634
lhand -7.80046 60.5469
lfingers 7.12502
lthumb -161.899 269.725
rfemur -30.5225 -2.16109 16.868
rtibia 28.6608
rfoot -8.02068 -7.6635
rtoes 0.910423
lfemur -28.6111 1.51373 -7.06675
ltibia 23.9748
lfoot -8.41061 -2.19618
ltoes -17.5894
188
root -11.6335 17.9454 6.93192 -113.839 85.2163 -129.752
lowerback 4.15952 1.80955 -1.21564
upperback 4.11191 2.49826 4.77004
thorax 1.64598 1.22871 5.55545
lowerneck -11.7542 -2.89264 1.3989
upperneck 41.7767 -1.20252 -2.53319
head 17.2057 0.123225 -1.38765
rclavicle 9.93923e-015 -4.77083e-015
rhumerus -9.33808 13.8798 -100.813
rradius 32.4038
rwrist -45.8734
rhand -27.5161 -16.2601
rfingers 7.12502
rthumb -0.918552 -46.2379
lclavicle 9.93923e-015 -4.77083e-015
lhumerus -12.8026 -45.6171 108.498
lradius 37.0713
lwrist 52.3761
lhand -7.88099 60.5418
lfingers 7.12502
lthumb -161.977 269.727
rfemur -30.5954 -2.13189 16.9586
rtibia 28.6119
rfoot -7.94976 -7.58066
rtoes 0.0426914
lfemur -28.645 1.72002 -7.04196
ltibia 23.9928
lfoot -8.29312 -2.1693
ltoes -16.6637
189
root -11.631 17.9444 6.92586 -112.811 85.2485 -128.719
lowerback 4.18276 1.78587 -1.32137
upperback 4.10828 2.46638 4.87273
thorax 1.62478 1.21061 5.72432
lowerneck -11.6697 -2.8562 1.32051
upperneck 41.7979 -1.07527 -2.62414
head 17.2008 0.152779 -1.39192
rclavicle -5.56597e-015 -6.04305e-014
rhumerus -9.44108 14.1039 -100.751
rradius 32.4899
rwrist -45.9551
rhand -27.5385 -16.4069
rfingers 7.12502
rthumb -0.940188 -46.3846
lclavicle -5.56597e-015 -6.04305e-014
lhumerus -12.7821 -45.3523 108.556
lradius 37.0464
lwrist 52.3064
lhand -7.87659 60.6113
lfingers 7.12502
lthumb -161.972 269.796
rfemur -30.5765 -2.11714 16.9651
rtibia 28.5785
rfoot -7.94177 -7.50746
rtoes 0.013612
lfemur -28.6261 1.92326 -7.09929
ltibia 24.0235
lfoot -8.24294 -2.23396
ltoes -16.1737
190
root -11.6291 17.9447 6.91832 -112.61 85.3087 -128.523
lowerback 4.21896 1.76038 -1.38826
upperback 4.09515 2.43155 4.90287
thorax 1.59118 1.1922 5.79393
lowerneck -11.5147 -2.8579 1.26607
upperneck 41.7385 -1.04052 -2.67308
head 17.1282 0.151219 -1.39514
rclavicle -2.50469e-014 4.37326e-014
rhumerus -9.49007 14.1697 -100.758
rradius 32.5015
rwrist -45.933
rhand -27.6369 -16.5391
rfingers 7.12502
rthumb -1.03523 -46.5164
lclavicle -2.50469e-014 4.37326e-014
lhumerus -12.7969 -45.1842 108.596
lradius 37.0652
lwrist 52.2988
lhand -7.95777 60.6484
lfingers 7.12502
lthumb -162.051 269.84
rfemur -30.5673 -2.068 16.8801
rtibia 28.5522
rfoot -7.93728 -7.52407
rtoes 0.108622
lfemur -28.6305 1.94875 -7.18003
ltibia 24.0581
lfoot -8.30849 -2.2327
ltoes -17.2179
191
root -11.629 17.9451 6.90808 -113.789 85.2754 -129.695
lowerback 4.27874 1.71944 -1.29416
upperback 4.10656 2.38049 4.88169
thorax 1.57941 1.16929 5.71788
lowerneck -11.4572 -2.86728 1.24345
upperneck 41.6771 -1.07407 -2.62735
head 17.0781 0.13759 -1.37446
rclavicle 4.69132e-014 4.92986e-014
rhumerus -9.18761 13.4654 -100.847
rradius 32.0288
rwrist -45.1752
rhand -27.5281 -16.3995
rfingers 7.12502
rthumb -0.930181 -46.3773
lclavicle 4.69132e-014 4.92986e-014
lhumerus -12.7798 -45.2141 108.576
lradius 37.0523
lwrist 52.2194
lhand -7.84365 60.6607
lfingers 7.12502
lthumb -161.941 269.842
rfemur -30.5192 -2.15335 16.8321
rtibia 28.4987
rfoot -7.90092 -7.5611
rtoes 0.265237
lfemur -28.6629 1.78166 -7.21015
ltibia 24.0889
lfoot -8.31756 -2.19133
ltoes -17.7361
192
root -11.6277 17.9459 6.89866 -114.43 85.2855 -130.362
lowerback 4.29358 1.71783 -1.24397
upperback 4.12122 2.37915 4.84104
thorax 1.58973 1.16964 5.64627
lowerneck -11.501 -2.88358 1.34709
upperneck 41.6625 -1.12093 -2.66585
head 17.077 0.127887 -1.41929
rclavicle 2.10712e-014 3.97569e-014
rhumerus -8.45231 11.5101 -101.037
rradius 30.78
rwrist -43.1721
rhand -26.9162 -16.0081
rfingers 7.12502
rthumb -0.339193 -45.9876
lclavicle 2.10712e-014 3.97569e-014
lhumerus -12.7669 -45.4063 108.514
lradius 37.0417
lwrist 52.1933
lhand -7.5703 60.6185
lfingers 7.12502
lthumb -161.678 269.776
rfemur -30.5 -2.2858 16.794
rtibia 28.4181
rfoot -7.83529 -7.50136
rtoes 0.159267
lfemur -28.6979 1.65895 -7.25874
ltibia 24.1086
lfoot -8.29861 -2.1305
ltoes -17.0054
193
root -11.6227 17.95 6.89485 -112.019 85.3967 -127.989
lowerback 4.2672 1.76284 -1.3414
upperback 4.11324 2.43575 4.85989
thorax 1.58585 1.19548 5.72039
lowerneck -11.5001 -2.87587 1.40029
upperneck 41.7158 -1.06283 -2.79618
head 17.1067 0.144908 -1.47891
rclavicle 1.19271e-014 9.54166e-015
rhumerus -9.15771 13.3239 -100.876
rradius 31.9953
rwrist -44.9674
rhand -27.3983 -16.2983
rfingers 7.12502
rthumb -0.804769 -46.2765
lclavicle 1.19271e-014 9.54166e-015
lhumerus -12.7925 -45.3956 108.507
lradius 37.0586
lwrist 52.3337
lhand -7.60535 60.496
lfingers 7.12502
lthumb -161.711 269.656
rfemur -30.5081 -2.10265 16.7676
rtibia 28.3274
rfoot -7.77566 -7.45763
rtoes -0.101238
lfemur -28.6596 1.8245 -7.28559
ltibia 24.1207
lfoot -8.32525 -2.0706
ltoes -16.5838
194
root -11.6181 17.9531 6.89007 -109.752 85.4899 -125.724
lowerback 4.28527 1.79765 -1.40399
upperback 4.10625 2.48106 4.89319
thorax 1.55996 1.21714 5.78873
lowerneck -11.4895 -2.8782 1.31971
upperneck 41.7902 -0.999573 -2.86498
head 17.1495 0.15269 -1.48559
rclavicle -3.53837e-014 -3.89618e-014
rhumerus -9.41695 13.8495 -100.826
rradius 32.3466
rwrist -45.3989
rhand -27.6535 -16.3947
rfingers 7.12502
rthumb -1.05124 -46.3719
lclavicle -3.53837e-014 -3.89618e-014
lhumerus -12.8163 -45.2461 108.58
lradius 37.0391
lwrist 52.3779
lhand -7.77637 60.4419
lfingers 7.12502
lthumb -161.876 269.618
rfemur -30.4672 -1.87773 16.7185
rtibia 28.2265
rfoot -7.73769 -7.46967
rtoes -0.05691
lfemur -28.5999 1.99734 -7.32233
ltibia 24.1418
lfoot -8.35953 -2.03123
ltoes -16.6392
195
root -11.6158 17.953 6.88129 -108.69 85.4631 -124.699
lowerback 4.26439 1.80889 -1.28053
upperback 4.11414 2.49996 4.90771
thorax 1.58177 1.22924 5.73383
lowerneck -11.511 -2.89881 1.21192
upperneck 41.7958 -1.01503 -2.82756
head 17.1601 0.134054 -1.45219
rclavicle -1.11319e-014 -1.11319e-014
rhumerus -9.3188 13.5936 -100.835
rradius 32.198
rwrist -45.0445
rhand -27.6785 -16.465
rfingers 7.12502
rthumb -1.07537 -46.442
lclavicle -1.11319e-014 -1.11319e-014
lhumerus -12.7822 -45.191 108.603
lradius 37
lwrist 52.3156
lhand -7.696 60.4075
lfingers 7.12502
lthumb -161.799 269.576
rfemur -30.464 -1.81966 16.753
rtibia 28.1338
rfoot -7.71409 -7.48473
rtoes -0.0204435
lfemur -28.6293 2.04959 -7.28552
ltibia 24.1637
lfoot -8.38351 -2.01734
ltoes -16.5743
